<?xml version="1.0" encoding="UTF-8"?>
<svg version="1.1" xmlns="http://www.w3.org/2000/svg" width="150" height="154">
<path d="M0 0 C0.66379669 -0.00817749 1.32759338 -0.01635498 2.01150513 -0.02478027 C4.20647287 -0.04957573 6.4013762 -0.066135 8.59643555 -0.08056641 C9.72294557 -0.08855192 9.72294557 -0.08855192 10.87221336 -0.09669876 C14.84725294 -0.12340475 18.82226139 -0.14278787 22.79736328 -0.15722656 C26.08280273 -0.17056614 29.36762113 -0.19842136 32.65283203 -0.23925781 C36.62452719 -0.2886232 40.59565909 -0.31335194 44.56764793 -0.32045364 C46.07831155 -0.32715764 47.58896301 -0.34235779 49.09945107 -0.36634445 C62.39664098 -0.56546073 62.39664098 -0.56546073 66.26904297 2.47558594 C69.93556601 7.1060638 70.67248923 9.94827932 70.6953125 15.90161133 C70.70042343 16.56716034 70.70553436 17.23270935 70.71080017 17.91842651 C70.72467092 20.11286476 70.72374137 22.30698804 70.72143555 24.50146484 C70.72532386 26.03076799 70.72965881 27.56007005 70.73442078 29.08937073 C70.74187755 32.29293317 70.74159567 35.4963854 70.73632812 38.69995117 C70.73053402 42.80014771 70.74746534 46.89989245 70.7706728 51.00001431 C70.78542263 54.15792975 70.78628016 57.3157367 70.78316307 60.4736805 C70.78367565 61.98511716 70.78890157 63.49656 70.79897499 65.00796318 C70.81134689 67.12385074 70.80454425 69.23886223 70.79296875 71.35473633 C70.79359818 72.55734604 70.7942276 73.75995575 70.7948761 74.99900818 C70.19047851 80.15734755 67.60672767 83.25321956 64.03833008 86.84985352 C63.37398956 87.52372604 62.70964905 88.19759857 62.025177 88.89189148 C61.31263763 89.60351944 60.60009827 90.3151474 59.8659668 91.04833984 C59.12740448 91.79118729 58.38884216 92.53403473 57.62789917 93.2993927 C56.06869149 94.86433042 54.50687378 96.42667146 52.94262695 97.98657227 C50.55229781 100.37373638 48.17560957 102.77392498 45.79956055 105.17529297 C44.28084047 106.69628565 42.76133529 108.2164949 41.2409668 109.73583984 C40.53247589 110.4535405 39.82398499 111.17124115 39.09402466 111.91069031 C38.42337982 112.57510635 37.75273499 113.2395224 37.06176758 113.92407227 C36.4779129 114.50855637 35.89405823 115.09304047 35.29251099 115.69523621 C31.23831161 118.93891958 27.43440984 119.4453073 22.34863281 119.4675293 C21.14711075 119.47706131 19.94558868 119.48659332 18.70765686 119.49641418 C17.41798508 119.49550278 16.12831329 119.49459137 14.79956055 119.49365234 C13.4534441 119.49754317 12.10732887 119.50187863 10.76121521 119.50663757 C7.94444798 119.5140843 5.12780613 119.51381977 2.31103516 119.50854492 C-1.28797025 119.50275155 -4.8864608 119.51968495 -8.48538113 119.5428896 C-11.26417511 119.55766375 -14.04284613 119.55849368 -16.82167244 119.55537987 C-18.79027194 119.55613879 -20.75885244 119.56998085 -22.72740173 119.58406067 C-23.93207596 119.57783188 -25.13675018 119.57160309 -26.37792969 119.56518555 C-27.96081032 119.56612968 -27.96081032 119.56612968 -29.57566833 119.5670929 C-34.38978993 118.96731168 -37.48700008 117.27782371 -40.91505432 113.87297058 C-42.84614437 110.76323061 -43.12121006 108.94906762 -43.20800781 105.3112793 C-43.2432103 104.14848953 -43.27841278 102.98569977 -43.31468201 101.78767395 C-43.32854446 100.53564682 -43.34240692 99.28361969 -43.35668945 97.99365234 C-43.37711807 96.68945847 -43.39754669 95.38526459 -43.41859436 94.04154968 C-43.45605763 91.27509523 -43.47546665 88.50911314 -43.48535156 85.74243164 C-43.49833942 82.93915236 -43.54646289 80.14022081 -43.62890625 77.33813477 C-44.10835446 60.72694035 -43.75555122 47.44430956 -33.00375366 34.00613403 C-30.85772314 31.27424982 -29.06849903 28.36983818 -27.21606445 25.43115234 C-25.90321022 23.4535293 -24.58690482 21.47819218 -23.2668457 19.50537109 C-22.27201172 17.99813477 -22.27201172 17.99813477 -21.25708008 16.46044922 C-10.35377105 0.11086737 -10.35377105 0.11086737 0 0 Z M40.4206543 15.19287109 C38.83661906 16.77690633 39.20090495 18.4700349 39.10424805 20.66552734 C39.04140625 22.01420898 39.04140625 22.01420898 38.97729492 23.39013672 C38.93797852 24.33566406 38.89866211 25.28119141 38.8581543 26.25537109 C38.79337891 27.67946289 38.79337891 27.67946289 38.72729492 29.13232422 C38.62086154 31.48568463 38.51884421 33.83915464 38.4206543 36.19287109 C37.4306543 36.19287109 36.4406543 36.19287109 35.4206543 36.19287109 C35.36006836 34.90509766 35.29948242 33.61732422 35.23706055 32.29052734 C35.15267183 30.61212951 35.068023 28.93374473 34.9831543 27.25537109 C34.94383789 26.40523437 34.90452148 25.55509766 34.86401367 24.67919922 C34.82211914 23.8703125 34.78022461 23.06142578 34.73706055 22.22802734 C34.68207397 21.10473022 34.68207397 21.10473022 34.62597656 19.95874023 C34.60294367 18.16825783 34.60294367 18.16825783 33.4206543 17.19287109 C29.7514966 17.04976822 26.09349989 17.15065448 22.4206543 17.19287109 C21.7606543 23.13287109 21.1006543 29.07287109 20.4206543 35.19287109 C19.7606543 35.19287109 19.1006543 35.19287109 18.4206543 35.19287109 C18.36006836 34.15646484 18.29948242 33.12005859 18.23706055 32.05224609 C18.15262059 30.68244236 18.06797433 29.31265134 17.9831543 27.94287109 C17.94383789 27.26095703 17.90452148 26.57904297 17.86401367 25.87646484 C17.65015777 22.48767139 17.24847355 19.50414811 16.4206543 16.19287109 C10.8106543 16.19287109 5.2006543 16.19287109 -0.5793457 16.19287109 C-0.13025061 25.73614176 1.02921887 35.05737573 2.4206543 44.50537109 C2.59886719 45.72844971 2.77708008 46.95152832 2.96069336 48.21166992 C3.13310547 49.35659912 3.30551758 50.50152832 3.4831543 51.68115234 C3.63913086 52.71796143 3.79510742 53.75477051 3.95581055 54.82299805 C4.18140791 57.13955175 4.18140791 57.13955175 5.4206543 58.19287109 C6.90937289 58.27956541 8.40209929 58.29990603 9.89331055 58.29052734 C11.24199219 58.28569336 11.24199219 58.28569336 12.61791992 58.28076172 C13.56344727 58.27238281 14.50897461 58.26400391 15.4831543 58.25537109 C16.43254883 58.25085938 17.38194336 58.24634766 18.36010742 58.24169922 C20.71364961 58.22987237 23.06715961 58.21193631 25.4206543 58.19287109 C25.7506543 54.23287109 26.0806543 50.27287109 26.4206543 46.19287109 C27.4106543 46.19287109 28.4006543 46.19287109 29.4206543 46.19287109 C29.4000293 47.24474609 29.3794043 48.29662109 29.3581543 49.38037109 C29.30995197 53.41943248 29.30995197 53.41943248 30.4206543 58.19287109 C37.3506543 58.19287109 44.2806543 58.19287109 51.4206543 58.19287109 C53.61539486 44.21471759 55.80663763 30.25180573 57.4206543 16.19287109 C54.60845724 15.9990293 51.79611234 15.81250507 48.9831543 15.63037109 C48.18071289 15.57429688 47.37827148 15.51822266 46.55151367 15.46044922 C44.51003318 15.33124159 42.46519061 15.25774379 40.4206543 15.19287109 Z " fill="#A40ABA" transform="translate(60.579345703125,16.80712890625)"/>
<path d="M0 0 C10.89 0.495 10.89 0.495 22 1 C21.855625 2.546875 21.71125 4.09375 21.5625 5.6875 C20.97619229 12.12013313 20.4813 18.55877232 20 25 C20.66 25.33 21.32 25.66 22 26 C21.01 26.33 20.02 26.66 19 27 C18.95101562 27.86882813 18.90203125 28.73765625 18.8515625 29.6328125 C18.77679688 30.78523438 18.70203125 31.93765625 18.625 33.125 C18.52058594 34.83042969 18.52058594 34.83042969 18.4140625 36.5703125 C18.00556124 39.95393616 17.19032431 42.81612441 16 46 C12.20847666 46.0867982 8.41720704 46.14032207 4.625 46.1875 C3.54476562 46.21263672 2.46453125 46.23777344 1.3515625 46.26367188 C-0.1953125 46.27817383 -0.1953125 46.27817383 -1.7734375 46.29296875 C-2.72653809 46.3086792 -3.67963867 46.32438965 -4.66162109 46.34057617 C-5.81911865 46.17199097 -5.81911865 46.17199097 -7 46 C-7.66 45.01 -8.32 44.02 -9 43 C-9.33 43.99 -9.66 44.98 -10 46 C-17.59 46 -25.18 46 -33 46 C-34.17078911 40.14605447 -35.28259765 34.51630319 -36.0703125 28.63671875 C-36.33134766 26.68862305 -36.33134766 26.68862305 -36.59765625 24.70117188 C-36.68418457 24.04173584 -36.77071289 23.3822998 -36.85986328 22.70288086 C-37.1269107 20.67297623 -37.40103516 18.64410979 -37.67578125 16.61523438 C-37.84722656 15.32294922 -38.01867188 14.03066406 -38.1953125 12.69921875 C-38.35016113 11.53221436 -38.50500977 10.36520996 -38.66455078 9.1628418 C-39 6 -39 6 -39 1 C-32.07 1 -25.14 1 -18 1 C-18 6.61 -18 12.22 -18 18 C-17.34 18 -16.68 18 -16 18 C-16 13.05 -16 8.1 -16 3 C-10.72 3 -5.44 3 0 3 C0 2.01 0 1.02 0 0 Z M4 2 C2.41596476 3.58403524 2.78025065 5.2771638 2.68359375 7.47265625 C2.62075195 8.82133789 2.62075195 8.82133789 2.55664062 10.19726562 C2.51732422 11.14279297 2.47800781 12.08832031 2.4375 13.0625 C2.37272461 14.4865918 2.37272461 14.4865918 2.30664062 15.93945312 C2.20020724 18.29281353 2.09818992 20.64628354 2 23 C1.01 23 0.02 23 -1 23 C-1.06058594 21.71222656 -1.12117188 20.42445312 -1.18359375 19.09765625 C-1.26798247 17.41925841 -1.3526313 15.74087364 -1.4375 14.0625 C-1.47681641 13.21236328 -1.51613281 12.36222656 -1.55664062 11.48632812 C-1.59853516 10.67744141 -1.64042969 9.86855469 -1.68359375 9.03515625 C-1.73858032 7.91185913 -1.73858032 7.91185913 -1.79467773 6.76586914 C-1.81771063 4.97538674 -1.81771063 4.97538674 -3 4 C-6.6691577 3.85689713 -10.32715441 3.95778338 -14 4 C-14.66 9.94 -15.32 15.88 -16 22 C-16.66 22 -17.32 22 -18 22 C-18.06058594 20.96359375 -18.12117188 19.9271875 -18.18359375 18.859375 C-18.26803371 17.48957127 -18.35267997 16.11978025 -18.4375 14.75 C-18.47681641 14.06808594 -18.51613281 13.38617188 -18.55664062 12.68359375 C-18.77049652 9.29480029 -19.17218075 6.31127702 -20 3 C-25.61 3 -31.22 3 -37 3 C-36.55090491 12.54327067 -35.39143543 21.86450464 -34 31.3125 C-33.82178711 32.53557861 -33.64357422 33.75865723 -33.45996094 35.01879883 C-33.28754883 36.16372803 -33.11513672 37.30865723 -32.9375 38.48828125 C-32.78152344 39.52509033 -32.62554687 40.56189941 -32.46484375 41.63012695 C-32.23924639 43.94668066 -32.23924639 43.94668066 -31 45 C-29.5112814 45.08669432 -28.018555 45.10703494 -26.52734375 45.09765625 C-25.17866211 45.09282227 -25.17866211 45.09282227 -23.80273438 45.08789062 C-22.85720703 45.07951172 -21.91167969 45.07113281 -20.9375 45.0625 C-19.98810547 45.05798828 -19.03871094 45.05347656 -18.06054688 45.04882812 C-15.70700469 45.03700128 -13.35349468 45.01906521 -11 45 C-10.67 41.04 -10.34 37.08 -10 33 C-9.01 33 -8.02 33 -7 33 C-7.020625 34.051875 -7.04125 35.10375 -7.0625 36.1875 C-7.11070233 40.22656139 -7.11070233 40.22656139 -6 45 C0.93 45 7.86 45 15 45 C17.19474056 31.0218465 19.38598334 17.05893463 21 3 C18.18780295 2.80615821 15.37545804 2.61963397 12.5625 2.4375 C11.76005859 2.38142578 10.95761719 2.32535156 10.13085938 2.26757812 C8.08937889 2.1383705 6.04453631 2.0648727 4 2 Z " fill="#E3A0E0" transform="translate(97,30)"/>
<path d="M0 0 C0.33 0 0.66 0 1 0 C1.33 19.47 1.66 38.94 2 59 C3.32 59.66 4.64 60.32 6 61 C7.0409066 62.64142963 8.04504326 64.30712215 9 66 C11.66660057 67.33330029 13.74888743 67.16159459 16.73486328 67.20532227 C17.93595734 67.22526749 19.13705139 67.24521271 20.37454224 67.26576233 C21.67664642 67.28247482 22.97875061 67.29918732 24.3203125 67.31640625 C25.66267538 67.33697625 27.00503179 67.35797273 28.34738159 67.37937927 C31.88188438 67.43459531 35.41644557 67.48400658 38.9510498 67.53222656 C42.55726322 67.58244504 46.16339172 67.63812929 49.76953125 67.69335938 C56.84628049 67.80093517 63.92310584 67.90238142 71 68 C71 68.33 71 68.66 71 69 C63.1502649 69.0696423 55.30060277 69.12288325 47.45063591 69.15543652 C43.8051954 69.17106391 40.15996693 69.19224805 36.51464844 69.22631836 C32.99386651 69.25901717 29.47328799 69.27687501 25.95236588 69.28463173 C23.96157365 69.29283732 21.97086275 69.31623998 19.98019409 69.33988953 C18.75938141 69.34011612 17.53856873 69.34034271 16.28076172 69.34057617 C15.21042694 69.34723801 14.14009216 69.35389984 13.037323 69.36076355 C8.20183694 68.78641992 5.11315798 67.09201501 1.65338135 63.69795227 C-0.32759908 60.46543083 -0.48532997 58.60359374 -0.45410156 54.83276367 C-0.45379944 53.61187546 -0.45349731 52.39098724 -0.45318604 51.13310242 C-0.43254089 49.82460831 -0.41189575 48.5161142 -0.390625 47.16796875 C-0.38315847 45.80748834 -0.37746748 44.44699712 -0.37347412 43.08650208 C-0.35824978 39.51716066 -0.31899711 35.94847718 -0.2746582 32.37939453 C-0.23363546 28.73283792 -0.21544826 25.0861743 -0.1953125 21.43945312 C-0.15249861 14.29270067 -0.08428714 7.14639344 0 0 Z " fill="#D987D6" transform="translate(18,67)"/>
<path d="M0 0 C0.33 0 0.66 0 1 0 C1 4.29 1 8.58 1 13 C1.66 13.33 2.32 13.66 3 14 C2.01 14.33 1.02 14.66 0 15 C-0.04898438 15.86882813 -0.09796875 16.73765625 -0.1484375 17.6328125 C-0.22320312 18.78523438 -0.29796875 19.93765625 -0.375 21.125 C-0.44460937 22.26195313 -0.51421875 23.39890625 -0.5859375 24.5703125 C-0.99443876 27.95393616 -1.80967569 30.81612441 -3 34 C-6.79152334 34.0867982 -10.58279296 34.14032207 -14.375 34.1875 C-15.45523438 34.21263672 -16.53546875 34.23777344 -17.6484375 34.26367188 C-19.1953125 34.27817383 -19.1953125 34.27817383 -20.7734375 34.29296875 C-21.72653809 34.3086792 -22.67963867 34.32438965 -23.66162109 34.34057617 C-24.81911865 34.17199097 -24.81911865 34.17199097 -26 34 C-26.66 33.01 -27.32 32.02 -28 31 C-28.33 31.99 -28.66 32.98 -29 34 C-36.59 34 -44.18 34 -52 34 C-52 33.67 -52 33.34 -52 33 C-44.74 33 -37.48 33 -30 33 C-29.67 29.04 -29.34 25.08 -29 21 C-28.01 21 -27.02 21 -26 21 C-25.67 24.96 -25.34 28.92 -25 33 C-18.07 33 -11.14 33 -4 33 C-3.71125 30.15375 -3.4225 27.3075 -3.125 24.375 C-2.28134683 16.21568879 -1.24347414 8.10903878 0 0 Z " fill="#D893D2" transform="translate(116,42)"/>
<path d="M0 0 C7.26 0.33 14.52 0.66 22 1 C21.67 4.63 21.34 8.26 21 12 C20.67 12 20.34 12 20 12 C19.875 5.25 19.875 5.25 21 3 C15.39 3 9.78 3 4 3 C3.34 9.6 2.68 16.2 2 23 C1.01 23 0.02 23 -1 23 C-2.05619003 18.71702469 -2.11702092 14.57014354 -2.0625 10.1875 C-2.05798828 9.49462891 -2.05347656 8.80175781 -2.04882812 8.08789062 C-2.03713156 6.39188932 -2.01919924 4.69593297 -2 3 C-1.34 3 -0.68 3 0 3 C0 2.01 0 1.02 0 0 Z " fill="#CA71CF" transform="translate(97,30)"/>
<path d="M0 0 C0.67343445 -0.00014603 1.3468689 -0.00029205 2.04071045 -0.0004425 C4.26455924 0.00025364 6.48832406 0.00803207 8.7121582 0.01586914 C10.25486709 0.01773438 11.79757657 0.01915778 13.34028625 0.02015686 C17.39927813 0.0239737 21.45823418 0.03379688 25.51721191 0.04486084 C29.65966304 0.05509287 33.80211996 0.05965832 37.94458008 0.06469727 C46.07154964 0.07541989 54.19849009 0.09248632 62.32543945 0.11352539 C62.32543945 0.44352539 62.32543945 0.77352539 62.32543945 1.11352539 C61.48463333 1.11939163 60.64382721 1.12525787 59.77754211 1.13130188 C51.84691104 1.18924785 43.91656103 1.26133545 35.98620319 1.3492403 C31.90927934 1.39393438 27.83245518 1.43319246 23.75537109 1.45996094 C19.81944086 1.48600378 15.8838945 1.52641268 11.94820213 1.57671165 C10.44798756 1.59337382 8.94770659 1.60489217 7.44741249 1.6111393 C5.34295199 1.62078788 3.23947207 1.64885365 1.13525391 1.68115234 C-0.66011055 1.69780693 -0.66011055 1.69780693 -2.491745 1.71479797 C-5.98139138 2.15196364 -7.87372291 3.02279165 -10.67456055 5.11352539 C-12.00249661 7.18053194 -12.00249661 7.18053194 -12.67456055 9.11352539 C-13.33456055 9.11352539 -13.99456055 9.11352539 -14.67456055 9.11352539 C-14.67456055 10.43352539 -14.67456055 11.75352539 -14.67456055 13.11352539 C-15.66456055 13.11352539 -16.65456055 13.11352539 -17.67456055 13.11352539 C-16.20304529 8.25752505 -13.32408306 4.56803525 -9.67456055 1.11352539 C-6.24417761 -0.02993559 -3.61824305 -0.00659061 0 0 Z " fill="#C477C1" transform="translate(60.674560546875,16.886474609375)"/>
<path d="M0 0 C1.32 0.33 2.64 0.66 4 1 C3.06725891 2.12894876 2.12859878 3.25300876 1.1875 4.375 C0.66542969 5.00148437 0.14335938 5.62796875 -0.39453125 6.2734375 C-2.7066341 8.75993253 -4.33805083 9.94215967 -7.75248718 10.24050903 C-8.86501358 10.23606781 -9.97753998 10.23162659 -11.1237793 10.22705078 C-12.38486008 10.22689972 -13.64594086 10.22674866 -14.94523621 10.22659302 C-16.32156532 10.21637976 -17.69789283 10.20594777 -19.07421875 10.1953125 C-20.48240458 10.19158172 -21.890593 10.18873506 -23.29878235 10.18673706 C-27.0027281 10.17910564 -30.70651668 10.15946148 -34.41040039 10.1373291 C-38.19089634 10.11686003 -41.97141772 10.10773308 -45.75195312 10.09765625 C-53.16804036 10.07621504 -60.58399814 10.04208513 -68 10 C-68 9.67 -68 9.34 -68 9 C-66.84488167 8.98786972 -66.84488167 8.98786972 -65.66642761 8.97549438 C-58.41215257 8.89758096 -51.15807961 8.8103004 -43.90404797 8.71247292 C-40.17459527 8.66250882 -36.44517092 8.61617897 -32.71557617 8.578125 C-29.11687631 8.54127335 -25.51841349 8.49491407 -21.91991615 8.44193649 C-20.54643216 8.42339183 -19.17289735 8.4082841 -17.79933739 8.39665604 C-15.87678472 8.37979563 -13.95436266 8.34962546 -12.03198242 8.31884766 C-10.93722092 8.30552399 -9.84245941 8.29220032 -8.71452332 8.2784729 C-5.78062437 8.19095 -5.78062437 8.19095 -3 6 C-2.67 5.01 -2.34 4.02 -2 3 C-1.34 3 -0.68 3 0 3 C0 2.01 0 1.02 0 0 Z " fill="#AD44B1" transform="translate(97,125)"/>
<path d="M0 0 C0.66 0 1.32 0 2 0 C1.83734146 0.54271545 1.67468292 1.08543091 1.50709534 1.64459229 C0.91672984 4.38678165 0.88026656 6.88048545 0.88647461 9.68652344 C0.88655014 10.82740417 0.88662567 11.96828491 0.88670349 13.14373779 C0.89186478 14.36989807 0.89702606 15.59605835 0.90234375 16.859375 C0.9037587 18.11888977 0.90517365 19.37840454 0.90663147 20.67608643 C0.91127927 24.01665119 0.92025719 27.35714721 0.93133545 30.69769287 C0.94158402 34.1096538 0.94613646 37.52162185 0.95117188 40.93359375 C0.96220037 47.6224148 0.97893811 54.31120343 1 61 C0.34 60.67 -0.32 60.34 -1 60 C-1.02312821 52.32463373 -1.04091753 44.64927104 -1.05181217 36.97387791 C-1.05703995 33.41022578 -1.06413569 29.84659743 -1.07543945 26.28295898 C-1.08834176 22.18993903 -1.09322906 18.0969442 -1.09765625 14.00390625 C-1.10281754 12.71851456 -1.10797882 11.43312286 -1.11329651 10.10877991 C-1.11337204 8.92763107 -1.11344757 7.74648224 -1.11352539 6.52954102 C-1.115746 5.48363297 -1.11796661 4.43772491 -1.12025452 3.36012268 C-1 1 -1 1 0 0 Z " fill="#9A13AB" transform="translate(20,66)"/>
<path d="M0 0 C1.33332095 2.6666419 0.67102033 4.16680303 0 7 C-0.66 7 -1.32 7 -2 7 C-2.268125 8.134375 -2.53625 9.26875 -2.8125 10.4375 C-3.204375 11.613125 -3.59625 12.78875 -4 14 C-4.99 14.33 -5.98 14.66 -7 15 C-7 15.99 -7 16.98 -7 18 C-8.65 18.66 -10.3 19.32 -12 20 C-10.37885498 15.20178341 -7.70723241 11.3327141 -4.875 7.1875 C-4.40707031 6.49462891 -3.93914063 5.80175781 -3.45703125 5.08789062 C-2.30887563 3.38908895 -1.15500633 1.69415136 0 0 Z " fill="#C467C8" transform="translate(36,39)"/>
<path d="M0 0 C0.33 0 0.66 0 1 0 C1 4.29 1 8.58 1 13 C1.66 13.33 2.32 13.66 3 14 C2.01 14.33 1.02 14.66 0 15 C0 17.31 0 19.62 0 22 C-0.33 22 -0.66 22 -1 22 C-1.02726927 19.64575325 -1.04696719 17.29183038 -1.0625 14.9375 C-1.07990234 12.97103516 -1.07990234 12.97103516 -1.09765625 10.96484375 C-1.00452335 7.1836481 -0.61448726 3.72079293 0 0 Z " fill="#CD75CE" transform="translate(116,42)"/>
<path d="M0 0 C0.33 0 0.66 0 1 0 C1.33 2.31 1.66 4.62 2 7 C2.66 7 3.32 7 4 7 C4 9.64 4 12.28 4 15 C3.01 15 2.02 15 1 15 C-0.32286246 10.03926578 -0.08893197 5.08888488 0 0 Z " fill="#DFA7D4" transform="translate(95,38)"/>
<path d="M0 0 C1.8125 2 1.8125 2 3 4 C-3.625 5.125 -3.625 5.125 -7 4 C-7 3.01 -7 2.02 -7 1 C-4.4254716 -0.2872642 -2.85291355 -0.34791629 0 0 Z " fill="#B637C0" transform="translate(125,18)"/>
<path d="M0 0 C-1.093125 0.391875 -2.18625 0.78375 -3.3125 1.1875 C-6.95122954 2.71341884 -8.18699952 4.46942012 -10 8 C-10.66 8 -11.32 8 -12 8 C-12 9.32 -12 10.64 -12 12 C-12.99 12 -13.98 12 -15 12 C-13.52848475 7.14399966 -10.64952252 3.45450986 -7 0 C-3.86650268 -1.04449911 -3.01031744 -0.93423645 0 0 Z " fill="#D98FD8" transform="translate(58,18)"/>
<path d="M0 0 C1.32 0.33 2.64 0.66 4 1 C-1.96583144 8.66742597 -1.96583144 8.66742597 -7 10 C-6.360625 9.401875 -5.72125 8.80375 -5.0625 8.1875 C-2.79689611 6.09189663 -2.79689611 6.09189663 -2 3 C-1.34 3 -0.68 3 0 3 C0 2.01 0 1.02 0 0 Z " fill="#CA6FCB" transform="translate(97,125)"/>
<path d="M0 0 C0.66 0 1.32 0 2 0 C2.29296875 5.95703125 2.29296875 5.95703125 2 8 C1.01 8.99 0.02 9.98 -1 11 C-0.67 7.37 -0.34 3.74 0 0 Z " fill="#A520B3" transform="translate(119,31)"/>
<path d="M0 0 C0.99 0 1.98 0 3 0 C3.99 1.98 4.98 3.96 6 6 C4.35 5.67 2.7 5.34 1 5 C0.67 3.35 0.34 1.7 0 0 Z " fill="#B64BBC" transform="translate(21,128)"/>
<path d="M0 0 C0.33 0 0.66 0 1 0 C1.12375 1.11375 1.2475 2.2275 1.375 3.375 C1.6465813 7.03103677 1.6465813 7.03103677 4 9 C3.01 10.485 3.01 10.485 2 12 C-0.13586678 8.79619983 -0.23132175 7.98060033 -0.125 4.3125 C-0.10695313 3.50425781 -0.08890625 2.69601563 -0.0703125 1.86328125 C-0.04710938 1.24839844 -0.02390625 0.63351563 0 0 Z " fill="#D077D4" transform="translate(18,119)"/>
</svg>
