<?xml version="1.0" encoding="UTF-8"?>
<svg version="1.1" xmlns="http://www.w3.org/2000/svg" width="2000" height="500">
<path d="M0 0 C1.08151327 -0.00538554 2.16302654 -0.01077108 3.27731293 -0.01631981 C6.87820507 -0.03055425 10.47872726 -0.02350661 14.07963562 -0.01637268 C16.67082513 -0.02207863 19.26201214 -0.02904376 21.85319519 -0.03717041 C28.1474745 -0.0543161 34.4416538 -0.05520714 40.73595039 -0.04995751 C45.8557479 -0.04590617 50.975516 -0.04737078 56.09531212 -0.05270576 C57.19085577 -0.0538284 57.19085577 -0.0538284 58.30853161 -0.05497371 C59.79256677 -0.05650529 61.27660192 -0.05804364 62.76063707 -0.05958868 C76.66014099 -0.07329876 90.55958853 -0.06788685 104.45909115 -0.05640347 C117.15322039 -0.04647569 129.84720378 -0.05940649 142.54131053 -0.08333766 C155.59899832 -0.10776733 168.65661829 -0.11732686 181.71432847 -0.11068493 C189.03584579 -0.10720089 196.35725104 -0.10937047 203.67875099 -0.12693596 C210.56615055 -0.14325597 217.45326806 -0.13841623 224.3406601 -0.11963081 C226.86208481 -0.11595301 229.38353024 -0.11902964 231.90493584 -0.1295166 C251.14073734 -0.20338614 267.24315359 1.08643756 282.17216492 14.64549255 C290.25305477 23.16576885 296.93265859 35.13839919 296.95872974 47.1098938 C296.96318759 48.0614246 296.96764543 49.0129554 296.97223836 49.99332047 C296.97196182 51.55690859 296.97196182 51.55690859 296.97167969 53.15208435 C296.97535638 54.26184505 296.97903306 55.37160576 296.98282117 56.51499557 C296.99386642 60.24730129 296.99770331 63.97957918 297.00151062 67.7118988 C297.0077747 70.38264125 297.01440869 73.05338073 297.02142334 75.72412109 C297.04117582 83.74927444 297.05125327 91.77442902 297.06015113 99.7996006 C297.06453679 103.58160611 297.06990295 107.36361022 297.07514 111.14561462 C297.09215249 123.72333994 297.1066451 136.30106439 297.11388874 148.87879944 C297.11579855 152.14201356 297.11771889 155.40522768 297.11967468 158.66844177 C297.12015842 159.47946987 297.12064216 160.29049798 297.12114056 161.12610269 C297.12943499 174.2545338 297.15476187 187.38287363 297.18725536 200.51126492 C297.22036584 213.99927934 297.23834118 227.48724744 297.24153298 240.9753027 C297.24369459 248.54449054 297.25239177 256.11354533 297.27799416 263.68269348 C297.2997559 270.13119636 297.30772488 276.57953388 297.29802737 283.02806932 C297.29349812 286.31471378 297.29749292 289.60094803 297.31478882 292.88755989 C297.33253777 296.4611267 297.32538564 300.03383837 297.31225586 303.60740662 C297.32322511 304.63195292 297.33419435 305.65649923 297.345496 306.7120924 C297.1315446 330.9572148 279.0419342 346.31714558 263.16801453 362.20530701 C261.94106746 363.43689745 260.71431236 364.66867917 259.48773193 365.90063477 C256.19277817 369.20855539 252.89463057 372.5132721 249.59542537 375.81695199 C247.52827876 377.88705078 245.46171151 379.95772628 243.39531136 382.02857018 C236.91135261 388.52615302 230.42543256 395.0217684 223.93659967 401.51448375 C216.47819798 408.9773749 209.02640242 416.44678099 201.58022016 423.92186385 C195.79752453 429.72621552 190.00903844 435.52475111 184.21617228 441.31895226 C180.76724139 444.76892696 177.3207413 448.22124612 173.88027763 451.67966652 C170.64710823 454.92938809 167.40676282 458.17178296 164.16094017 461.40886497 C162.97727345 462.59176555 161.79612667 463.77719442 160.61782455 464.96543884 C152.53420384 473.11321104 144.38020507 480.9977586 133.51200867 485.26268005 C132.54650085 485.65197693 131.58099304 486.0412738 130.58622742 486.44236755 C124.64818824 488.47490713 119.10650629 488.53606767 112.88894653 488.53485107 C111.88042021 488.53852776 110.87189389 488.54220445 109.83280617 488.54599255 C106.44909443 488.55701668 103.06541341 488.5608711 99.6816864 488.56468201 C97.25709943 488.57094764 94.83251343 488.57759453 92.40792847 488.58459473 C85.12921196 488.60381052 77.850498 488.61442142 70.57176384 488.62332252 C67.13992399 488.62771078 63.70808567 488.6330762 60.27624702 488.63831139 C48.86084914 488.6553207 37.4454522 488.66981336 26.0300436 488.67706013 C23.069849 488.67896987 20.10965441 488.68089022 17.14945984 488.68284607 C16.41376261 488.68332981 15.67806538 488.68381355 14.92007429 488.68431195 C3.01064252 488.6926067 -8.89868864 488.71793553 -20.80807651 488.75042675 C-33.04858908 488.78354775 -45.28905059 488.80151344 -57.52960819 488.80470437 C-64.39679167 488.80686484 -71.26382843 488.81554532 -78.13096809 488.84116554 C-84.59473261 488.86522585 -91.05830518 488.86866665 -97.52210808 488.85840416 C-99.88915255 488.85790945 -102.25621013 488.86421068 -104.62321472 488.87796021 C-127.56876781 489.00374523 -127.56876781 489.00374523 -137.17549133 484.38768005 C-137.99285546 484.0097849 -138.81021959 483.63188974 -139.65235233 483.24254322 C-151.09326526 477.69095358 -159.75178377 467.91563457 -164.45674133 456.1962738 C-167.12366448 448.43362251 -168.3243551 441.61387225 -168.31593323 433.44590759 C-168.31890435 432.5442592 -168.32187547 431.64261081 -168.32493663 430.71363974 C-168.33360983 427.69156564 -168.33513073 424.66953123 -168.33662415 421.64744568 C-168.34125341 419.48063574 -168.34627822 417.31382661 -168.35166931 415.14701843 C-168.3647876 409.2582 -168.37123753 403.36939297 -168.37567997 397.48056221 C-168.3786125 393.79873629 -168.38271773 390.11691347 -168.38718414 386.43508911 C-168.40085953 374.90793577 -168.41052516 363.38078953 -168.41438603 351.85362864 C-168.41886259 338.56213733 -168.43639167 325.27077522 -168.46538663 311.97931147 C-168.48703536 301.69713714 -168.49709207 291.41499173 -168.49842715 281.13279486 C-168.49947318 274.99610271 -168.50533764 268.85950743 -168.52324677 262.72283936 C-168.53978187 256.94441946 -168.54185654 251.16616866 -168.53310776 245.38773346 C-168.53234021 243.27428483 -168.5366426 241.1608269 -168.54656601 239.04740143 C-168.64531995 216.69262743 -163.69909969 202.21356366 -151.19758606 183.78935242 C-148.70478726 180.11457463 -146.231617 176.42662845 -143.75752258 172.73924255 C-143.26911896 172.01212067 -142.78071533 171.28499878 -142.2775116 170.5358429 C-138.40052656 164.75254546 -134.63070847 158.90759695 -130.92549133 153.01268005 C-125.66142704 144.6569729 -120.23701167 136.42017786 -114.74253845 128.21430969 C-107.81545556 117.86761464 -100.95171072 107.48048156 -94.11299133 97.07518005 C-93.59027649 96.28002991 -93.06756165 95.48487976 -92.52900696 94.66563416 C-89.29521749 89.74625673 -86.06249169 84.82618106 -82.83003235 79.90592957 C-78.37554025 73.12609006 -73.9192357 66.34744276 -69.4618988 59.56947327 C-67.92379105 57.23015092 -66.38640081 54.89035832 -64.84907532 52.55052185 C-61.96295712 48.15955087 -59.07117062 43.77235112 -56.17549133 39.38768005 C-55.64673401 38.58654785 -55.11797668 37.78541565 -54.57319641 36.96000671 C-52.95763497 34.51483751 -51.33857686 32.07202032 -49.71846008 29.62986755 C-49.22786606 28.88694458 -48.73727203 28.14402161 -48.23181152 27.37858582 C-36.52915329 9.77771514 -21.52701042 -0.13027652 0 0 Z " fill="#A406BC" transform="translate(187.1754913330078,5.6123199462890625)"/>
<path d="M0 0 C26.07 0 52.14 0 79 0 C80.26386608 14.11317125 81.52391791 28.22651512 82.76574707 42.34161377 C82.97141319 44.67558661 83.17830726 47.00944559 83.38574219 49.34326172 C84.43723465 61.25543989 85.35020849 73.03454332 85 85 C86.98 85 88.96 85 91 85 C90.98771866 84.37542908 90.97543732 83.75085815 90.96278381 83.10736084 C90.87735793 75.15595345 91.4109214 67.31226231 92.05859375 59.390625 C92.1686161 58.01066568 92.27831542 56.63068057 92.38771057 55.25067139 C92.61621381 52.3796184 92.84759936 49.5088182 93.08129883 46.63818359 C93.37942711 42.97498337 93.67175097 39.31134903 93.96211147 35.64752579 C94.18769138 32.80596729 94.41557224 29.96459712 94.64421272 27.12328339 C94.8051463 25.12101676 94.96477464 23.11864536 95.12437439 21.11627197 C95.27441673 19.2783609 95.27441673 19.2783609 95.42749023 17.40332031 C95.51409409 16.33285461 95.60069794 15.26238892 95.68992615 14.15948486 C96.02342853 10.76127599 96.51711187 7.38021692 97 4 C114.49 4 131.98 4 150 4 C152.07415889 24.2409299 154.11596855 44.46920576 155.75 64.75 C155.81466461 65.5469931 155.87932922 66.34398621 155.94595337 67.16513062 C157 80.21740003 157 80.21740003 157 85 C158.98 85 160.96 85 163 85 C162.98771866 84.02056427 162.97543732 83.04112854 162.96278381 82.03201294 C162.88111053 72.59151951 163.27524606 63.28109816 164.05859375 53.8671875 C164.16878007 52.49199196 164.27847475 51.11675696 164.38771057 49.7414856 C164.61501698 46.89601118 164.84642664 44.05091442 165.08129883 41.20605469 C165.3811278 37.57329807 165.67297024 33.93995484 165.96211147 30.30633354 C166.18727657 27.48194747 166.41525382 24.65779438 166.64421272 21.83371353 C166.80512905 19.84745382 166.96476581 17.86109057 167.12437439 15.87472534 C167.22440262 14.66551422 167.32443085 13.4563031 167.42749023 12.21044922 C167.51409409 11.15284393 167.60069794 10.09523865 167.68992615 9.00558472 C168.00122344 5.98814107 168.50130245 2.99218531 169 0 C194.74 0 220.48 0 247 0 C246.38781428 9.79497159 245.72888272 19.03497613 244.125 28.625 C243.76023521 30.90080438 243.396975 33.17685038 243.03515625 35.453125 C242.85742676 36.56494141 242.67969727 37.67675781 242.49658203 38.82226562 C241.79182386 43.33216352 241.16666884 47.85067816 240.5625 52.375 C240.32166697 54.17188202 240.08077881 55.96875666 239.83984375 57.765625 C239.7094873 58.73822266 239.57913086 59.71082031 239.44482422 60.71289062 C238.62800004 66.74896128 237.78610676 72.78157382 236.9465332 78.81451416 C236.62230389 81.14437384 236.29841603 83.47428077 235.97460938 85.80419922 C235.11147968 92.01380634 234.24772876 98.22332666 233.38232422 104.43261719 C229.87261108 129.61530471 226.43543068 154.80684169 223 180 C191.98 180 160.96 180 129 180 C126 141 126 141 126 130 C124.02 130 122.04 130 120 130 C119.92652344 131.35351562 119.92652344 131.35351562 119.8515625 132.734375 C119.31144861 142.4114155 118.6724421 152.08130565 118 161.75 C117.9170166 162.97557617 117.8340332 164.20115234 117.74853516 165.46386719 C117.62551025 167.20651855 117.62551025 167.20651855 117.5 168.984375 C117.4278125 170.02303711 117.355625 171.06169922 117.28125 172.13183594 C117 175 117 175 116 180 C85.97 180 55.94 180 25 180 C23.59065368 175.06728788 22.56011618 170.79075576 21.8515625 165.78515625 C21.75448502 165.10651016 21.65740753 164.42786407 21.55738831 163.72865295 C21.24142193 161.50729786 20.93302598 159.28496895 20.625 157.0625 C20.40161346 155.4783296 20.17805914 153.89418286 19.9543457 152.31005859 C18.5914155 142.59372677 17.35662647 132.86664288 16.1875 123.125 C14.45120082 108.74811174 12.30714951 94.44030665 10.125 80.125 C9.77691528 77.83821943 9.42885211 75.55143558 9.08081055 73.26464844 C8.90871567 72.13424133 8.73662079 71.00383423 8.55931091 69.83917236 C8.38762894 68.71146423 8.21594696 67.5837561 8.0390625 66.421875 C7.78196251 64.7334549 7.78196251 64.7334549 7.51966858 63.01092529 C5.95173285 52.70401473 4.39766983 42.39526669 2.89544678 32.07855225 C2.63553829 30.30163507 2.37280471 28.52512841 2.10699463 26.74908447 C1.74086184 24.29990611 1.38481595 21.84945728 1.03125 19.3984375 C0.92541595 18.70486145 0.81958191 18.0112854 0.71054077 17.29669189 C-0.12371039 11.37976883 0 6.1552841 0 0 Z " fill="#FEF3E3" transform="translate(187,66)"/>
<path d="M0 0 C1.94777118 -0.02160941 3.89544449 -0.05574708 5.84277344 -0.10253906 C8.64985533 -0.16938567 11.45493091 -0.19697011 14.26269531 -0.21606445 C15.13260101 -0.24389511 16.00250671 -0.27172577 16.89877319 -0.30039978 C19.25785561 -0.29235981 21.27334319 -0.20740621 23.55175781 0.4050293 C26.95286103 4.08810519 28.40611567 8.21658734 29.96972656 12.93237305 C30.18393753 13.57242279 30.3981485 14.21247253 30.61885071 14.87191772 C31.33564378 17.02562523 32.03791059 19.1837462 32.73925781 21.3425293 C33.25473756 22.90857647 33.77036753 24.47457419 34.28613281 26.04052734 C41.68571944 48.63020721 48.5768392 71.3855796 55.54168701 94.11193848 C57.12562628 99.27598821 58.7153764 104.43824417 60.30566406 109.6003418 C63.0576302 118.53423489 65.80628242 127.46913948 68.55175781 136.4050293 C70.88391341 134.0728737 71.4546343 132.33162209 72.5637207 129.23461914 C73.15057396 127.60923721 73.15057396 127.60923721 73.74928284 125.95101929 C74.17007614 124.76795197 74.59086945 123.58488464 75.02441406 122.3659668 C75.70050373 120.48793395 76.37659492 118.60990164 77.05276394 116.73189735 C78.00504924 114.0825027 78.95212605 111.43125758 79.89929199 108.7800293 C81.74747581 103.61003722 83.6056773 98.4436393 85.46342087 93.27707672 C86.14894975 91.36726033 86.83146916 89.4563885 87.51358032 87.54534912 C89.68960814 81.4642029 91.91798622 75.41082284 94.27783203 69.39819336 C94.70309677 68.30576324 95.12836151 67.21333313 95.56651306 66.08779907 C96.36243961 64.0557339 97.17144494 62.02872165 97.99610901 60.00814819 C101.34903907 51.42288997 99.89352048 45.63534854 96.64550781 37.3112793 C96.36074585 36.56092407 96.07598389 35.81056885 95.78259277 35.03747559 C94.87912863 32.65732596 93.96663504 30.28081338 93.05175781 27.9050293 C91.84554678 24.77269974 90.64894943 21.63694162 89.45800781 18.4987793 C89.18194702 17.7912854 88.90588623 17.0837915 88.62145996 16.3548584 C86.99622553 12.06922297 85.74208939 8.03264335 85.55175781 3.4050293 C86.51489258 1.49462891 86.51489258 1.49462891 88.55175781 0.4050293 C91.16233809 0.09462551 93.53003815 -0.03927684 96.14160156 -0.02856445 C96.88253555 -0.0338063 97.62346954 -0.03904816 98.38685608 -0.04444885 C99.95279692 -0.05086753 101.51878598 -0.04953398 103.0847168 -0.04101562 C105.47760173 -0.03251212 107.86809358 -0.06125349 110.26074219 -0.09301758 C111.78352793 -0.09462992 113.30631789 -0.09405142 114.82910156 -0.09106445 C115.54275375 -0.10229843 116.25640594 -0.11353241 116.99168396 -0.12510681 C120.19432906 -0.0803134 122.10835966 0.04498908 124.63371277 2.09558105 C126.74960618 4.64325131 127.68586019 6.73534913 128.76806641 9.85791016 C129.15800278 10.96420776 129.54793915 12.07050537 129.94969177 13.21032715 C130.36235794 14.41797729 130.77502411 15.62562744 131.20019531 16.86987305 C131.64935513 18.15626184 132.09962428 19.44226375 132.55091858 20.72790527 C133.51698111 23.48647042 134.4760706 26.24732085 135.42965698 29.01022339 C136.93335113 33.36649081 138.45171537 37.71753844 139.97387695 42.06738281 C140.35820184 43.16569003 140.35820184 43.16569003 140.75029087 44.28618526 C141.27307021 45.77998072 141.79591459 47.27375341 142.31882286 48.76750374 C143.11608436 51.04641607 143.91187329 53.32583873 144.70747375 55.60533142 C148.39657711 66.16553531 152.15429559 76.69950599 155.96191406 87.2175293 C156.21841736 87.92633303 156.47492065 88.63513676 156.73919678 89.36541939 C158.97507352 95.54199453 161.21573881 101.71682486 163.46136475 107.88986206 C164.82648419 111.64254513 166.18710089 115.39685358 167.54785156 119.15112305 C168.16020409 120.8277301 168.16020409 120.8277301 168.78492737 122.53820801 C169.15198288 123.55185425 169.51903839 124.56550049 169.8972168 125.60986328 C170.21867172 126.49302719 170.54012665 127.3761911 170.87132263 128.28611755 C171.55175781 130.4050293 171.55175781 130.4050293 171.55175781 132.4050293 C172.21175781 132.4050293 172.87175781 132.4050293 173.55175781 132.4050293 C173.72080376 131.49773575 173.72080376 131.49773575 173.89326477 130.57211304 C175.08104417 124.39577903 176.56947169 118.3688574 178.28222656 112.3190918 C178.54953583 111.36407776 178.81684509 110.40906372 179.09225464 109.42510986 C179.97057955 106.29227406 180.85465156 103.16109678 181.73925781 100.0300293 C182.35906078 97.82709313 182.97876937 95.62413041 183.59838867 93.42114258 C188.21724468 77.02560729 192.90096109 60.64863951 197.61425781 44.2800293 C197.92704681 43.19232239 198.23983582 42.10461548 198.56210327 40.98394775 C200.53817041 34.11822 202.53345232 27.25845747 204.55175781 20.4050293 C204.79448425 19.57571899 205.03721069 18.74640869 205.28729248 17.89196777 C205.94805292 15.64596869 206.6204273 13.40386253 207.29785156 11.1628418 C207.66450928 9.93968262 208.03116699 8.71652344 208.40893555 7.45629883 C210.34732093 2.28092167 210.34732093 2.28092167 212.55175781 0.4050293 C215.51100674 0.01238618 218.09320908 -0.13228474 221.05175781 -0.09106445 C221.88384766 -0.09251968 222.7159375 -0.09397491 223.57324219 -0.09547424 C225.33174136 -0.09381493 227.09025501 -0.08224993 228.84863281 -0.06152344 C231.54196793 -0.03257592 234.23333421 -0.04091127 236.92675781 -0.05395508 C238.63510072 -0.0477174 240.34343741 -0.03932623 242.05175781 -0.02856445 C242.85806641 -0.03150009 243.664375 -0.03443573 244.49511719 -0.03746033 C250.09606461 0.05715332 250.09606461 0.05715332 252.29490662 1.73574829 C253.55175781 3.4050293 253.55175781 3.4050293 253.44262695 6.51757812 C252.40363726 11.05137724 250.94948211 15.26284926 249.29785156 19.60424805 C248.96577194 20.49464783 248.63369232 21.38504761 248.29154968 22.3024292 C247.57329981 24.22617623 246.85192198 26.14875772 246.12774658 28.07028198 C244.56885545 32.20853497 243.02705005 36.35309232 241.48382568 40.49720764 C240.28365385 43.71904527 239.08109374 46.93998502 237.87841797 50.16088867 C222.75315249 90.71202535 208.44239818 131.55250845 194.81738281 172.6315918 C194.57825857 173.35200087 194.33913433 174.07240993 194.0927639 174.81464958 C191.74164985 181.89805879 189.39447058 188.9826762 187.06839561 196.07435226 C186.41660728 198.05896292 185.76219635 200.04268711 185.10675049 202.02609253 C184.30672621 204.44830174 183.511348 206.87205268 182.72161865 209.29763794 C180.73702052 215.28817591 178.54694051 220.84701495 175.55175781 226.4050293 C173.57175781 226.4050293 171.59175781 226.4050293 169.55175781 226.4050293 C164.51077414 216.81225345 160.36852544 207.17319296 156.67285156 196.9909668 C156.13823293 195.53753874 155.60281204 194.08440557 155.06665039 192.63154602 C153.94283045 189.58238465 152.82357744 186.53160705 151.70822144 183.4793396 C149.11584789 176.38659237 146.4982333 169.30314985 143.88212776 162.21912956 C143.02472235 159.8969128 142.16816792 157.57438326 141.31163025 155.25184631 C136.97167662 143.49279525 132.54549132 131.76969107 127.98925781 120.0925293 C127.70412323 119.35854919 127.41898865 118.62456909 127.12521362 117.86834717 C125.05488568 111.1600874 125.05488568 111.1600874 121.55175781 105.4050293 C115.81217385 117.30320613 110.35678347 129.28215605 105.20794678 141.44729614 C103.28399166 145.9906927 101.34528293 150.52779017 99.40722656 155.06518555 C98.81062225 156.46265266 98.81062225 156.46265266 98.20196533 157.88835144 C94.20996511 167.227208 90.1580496 176.53946107 86.0788269 185.84051514 C85.32494267 187.5595653 84.57191752 189.27899253 83.81985474 190.99884033 C81.42259099 196.47909502 79.00121884 201.94790465 76.55175781 207.4050293 C76.19698364 208.19834656 75.84220947 208.99166382 75.47668457 209.809021 C74.42121339 212.15723936 73.3521469 214.49875021 72.27832031 216.83862305 C71.96253021 217.54310074 71.64674011 218.24757843 71.32138062 218.97340393 C69.55528659 222.77556349 67.83657402 225.75255924 64.55175781 228.4050293 C62.48925781 228.4675293 62.48925781 228.4675293 60.55175781 227.4050293 C58.00373026 223.65790477 56.42894733 219.77322417 54.86425781 215.53393555 C54.6100708 214.84562149 54.35588379 214.15730743 54.09399414 213.44813538 C50.81782962 204.50652779 47.73495546 195.49573846 44.6362915 186.49151611 C26.77839594 134.64040431 7.77862162 83.22798422 -12.03857422 32.09375 C-12.44576691 31.04118515 -12.85295959 29.9886203 -13.27249146 28.90415955 C-14.02783753 26.95231134 -14.78491372 25.0011313 -15.54415894 23.05079651 C-17.16315806 18.86608155 -18.74883875 14.67041215 -20.24121094 10.4387207 C-20.49153076 9.73260651 -20.74185059 9.02649231 -20.99975586 8.29898071 C-21.44824219 6.4050293 -21.44824219 6.4050293 -20.76074219 3.4050293 C-17.1767964 -2.05622142 -5.97192878 0.04988364 0 0 Z " fill="#A405BB" transform="translate(592.4482421875,180.594970703125)"/>
<path d="M0 0 C1.35738281 0.38285156 1.35738281 0.38285156 2.7421875 0.7734375 C10.68372647 3.47009715 17.64265494 8.82177353 21.78515625 16.1640625 C23 19 23 19 23 21 C23.67804688 20.43152344 24.35609375 19.86304688 25.0546875 19.27734375 C28.01388422 16.82227611 30.99829665 14.40289807 34 12 C34.80179688 11.35804688 35.60359375 10.71609375 36.4296875 10.0546875 C51.32923556 -1.13251525 69.58738713 -4.80303093 87.875 -2.3125 C99.94175104 -0.08193241 110.46470522 5.17999589 118.3125 14.75 C125.26076915 25.11839619 125.66113564 35.81945001 125.828125 47.88671875 C125.86571145 49.63283101 125.90486908 51.37891006 125.94549561 53.12495422 C126.0477277 57.71714242 126.12698997 62.30945517 126.20178223 66.90216064 C126.2806928 71.46049469 126.38416135 76.0182661 126.484375 80.57617188 C126.69075603 90.21850946 126.84097716 99.86104832 126.96603394 109.50475311 C126.99968992 111.97722059 127.03839844 114.44956331 127.07836914 116.92193604 C127.1386861 120.73138427 127.18308243 124.54067647 127.21407318 128.3504734 C127.22747207 129.74076881 127.24584687 131.1310263 127.26950836 132.52118492 C127.30043174 134.41213674 127.31046571 136.30339623 127.31933594 138.19458008 C127.33574127 139.77798943 127.33574127 139.77798943 127.35247803 141.39338684 C127 144 127 144 125.6819458 145.83956909 C122.88765353 147.7674452 120.14651398 147.37089221 116.8125 147.36328125 C116.11358643 147.36377975 115.41467285 147.36427826 114.69458008 147.36479187 C113.21855828 147.36245392 111.74253231 147.35274165 110.26660156 147.33618164 C108.00810067 147.31258464 105.75078038 147.3156227 103.4921875 147.32226562 C92.41884152 147.27922768 92.41884152 147.27922768 89 145 C87.52523653 140.90160113 87.8041937 136.53365205 87.75048828 132.22753906 C87.72823685 130.89994568 87.72823685 130.89994568 87.70553589 129.54553223 C87.67365646 127.62491095 87.64374701 125.70425619 87.61557388 123.78357697 C87.56992351 120.73968783 87.51693405 117.69601107 87.4616394 114.65228271 C87.3049671 105.9985042 87.15529222 97.34466233 87.02587891 88.69042969 C86.94616034 83.39469218 86.85252533 78.0993525 86.75005722 72.80400848 C86.71376871 70.78996189 86.68269423 68.77581413 86.65701675 66.76160431 C86.62054913 63.93734635 86.56635334 61.11392454 86.50830078 58.29003906 C86.50195618 57.4648175 86.49561157 56.63959595 86.48907471 55.78936768 C86.30197977 48.31484267 84.53580365 41.38203133 79 36 C72.0201695 31.69329608 63.9408405 32.0131477 56.06640625 33.5859375 C45.49864692 36.85369854 38.09603701 44.56457145 32.53515625 53.8984375 C27.59924142 63.87074381 24.83381355 74.35139462 24.91821289 85.5144043 C24.92800926 87.38620613 24.92800926 87.38620613 24.93800354 89.29582214 C24.94374453 89.95231436 24.94948551 90.60880657 24.95540047 91.28519249 C24.97294013 93.35776352 24.98313561 95.43025598 24.99131775 97.50288391 C25.01564996 103.3907512 25.05145506 109.27851124 25.09594727 115.16625977 C25.12274215 118.77936425 25.13977349 122.39240898 25.15081596 126.00559425 C25.1570141 127.37831661 25.16700487 128.75102739 25.18089485 130.12369347 C25.20013298 132.04031878 25.20595227 133.95706457 25.21118164 135.8737793 C25.21863907 136.96297165 25.2260965 138.052164 25.23377991 139.17436218 C24.99902572 142.01177593 24.56162305 143.6408375 23 146 C18.50650112 148.24674944 12.3945142 147.26856602 7.39697266 147.29516602 C5.14033309 147.31238302 2.88515763 147.35627122 0.62890625 147.40039062 C-0.8072809 147.4105176 -2.2434805 147.41903369 -3.6796875 147.42578125 C-5.64010986 147.44765503 -5.64010986 147.44765503 -7.64013672 147.4699707 C-11 147 -11 147 -13.18359375 145.49298096 C-15.73583621 141.99007964 -15.51462793 138.80824193 -15.42236328 134.64233398 C-15.4197348 133.80110489 -15.41710632 132.95987579 -15.41439819 132.09315491 C-15.40141172 129.31034436 -15.36052624 126.5286324 -15.3203125 123.74609375 C-15.30776372 121.80519299 -15.29728618 119.86427783 -15.28878784 117.9233551 C-15.26216531 112.80635185 -15.21332629 107.6898248 -15.15808105 102.57305908 C-15.07194597 94.4088196 -15.0120932 86.24446659 -14.9659996 78.07991219 C-14.94571517 75.2399702 -14.91158302 72.4004397 -14.87600708 69.56065369 C-14.18355889 52.74332267 -14.18355889 52.74332267 -21 38 C-26.78716256 32.64687463 -31.88432854 32.63141716 -39.5546875 32.734375 C-49.89637357 33.5316932 -57.24690896 38.29041313 -64 46 C-79.46965972 67.4856385 -77.19001824 93.86250009 -77.47680664 119.0090332 C-77.51649642 122.34083598 -77.56796716 125.67229438 -77.62109375 129.00390625 C-77.6295079 130.01957169 -77.63792206 131.03523712 -77.64659119 132.0816803 C-77.73345756 137.05172469 -77.8689221 141.40384464 -80 146 C-84.49156092 148.24578046 -90.65857908 147.18584432 -95.65795898 147.18530273 C-97.92515866 147.1874881 -100.19187089 147.20564493 -102.45898438 147.22460938 C-103.89843583 147.22754362 -105.33788961 147.22952821 -106.77734375 147.23046875 C-108.08952881 147.23457764 -109.40171387 147.23868652 -110.75366211 147.24291992 C-114 147 -114 147 -117 145 C-118.14740843 141.5577747 -118.11420399 138.91657996 -118.0925293 135.28735352 C-118.08887958 134.62247956 -118.08522985 133.95760561 -118.08146954 133.27258396 C-118.0293498 126.68263837 -117.81622814 120.09839826 -117.59052086 113.51239204 C-117.13127659 99.86211836 -116.90904568 86.21858515 -116.839077 72.56099319 C-116.82422795 69.69318212 -116.80657523 66.82540103 -116.78811646 63.95761108 C-116.71407305 52.25366271 -116.71407305 52.25366271 -116.67407227 40.54956055 C-116.66402109 35.68499819 -116.63485426 30.82088159 -116.59275246 25.95649529 C-116.58048371 24.12609141 -116.57531362 22.29562498 -116.57755089 20.46518135 C-116.5798925 17.93795893 -116.55785615 15.41205412 -116.5300293 12.88500977 C-116.53663071 12.14086319 -116.54323212 11.39671661 -116.55003357 10.63002014 C-116.48774604 7.19806805 -116.23859463 5.31795666 -114.15292358 2.5385437 C-111.20964827 0.43519097 -109.18604919 0.49802467 -105.58984375 0.50390625 C-103.73456055 0.50293945 -103.73456055 0.50293945 -101.84179688 0.50195312 C-100.55337891 0.52193359 -99.26496094 0.54191406 -97.9375 0.5625 C-96.64521484 0.55541016 -95.35292969 0.54832031 -94.02148438 0.54101562 C-84.51981966 0.60545049 -84.51981966 0.60545049 -82.15112305 2.40332031 C-80.76065213 4.33199047 -80.32872875 5.85698416 -79.875 8.1875 C-79.7203125 8.97382813 -79.565625 9.76015625 -79.40625 10.5703125 C-78.8261668 14.03965624 -78.38147642 17.50313278 -78 21 C-77.01 20.154375 -76.02 19.30875 -75 18.4375 C-74.35160156 17.88835937 -73.70320313 17.33921875 -73.03515625 16.7734375 C-71.74152859 15.64616887 -70.47434864 14.48722651 -69.24609375 13.2890625 C-51.25565221 -3.88539789 -23.0486051 -6.51250513 0 0 Z " fill="#A405BB" transform="translate(1420,259)"/>
<path d="M0 0 C-0.01675781 -1.07636719 -0.03351563 -2.15273438 -0.05078125 -3.26171875 C0.00327119 -7.24080976 0.61300613 -10.27701644 2 -14 C6.73736707 -17.15824471 11.82178541 -16.37195321 17.39672852 -16.37060547 C19.42744854 -16.37497836 21.45599267 -16.41130537 23.48632812 -16.44921875 C24.76830078 -16.45308594 26.05027344 -16.45695312 27.37109375 -16.4609375 C28.54599365 -16.46915527 29.72089355 -16.47737305 30.93139648 -16.48583984 C34 -16 34 -16 36.15766907 -14.5811615 C38.97120719 -10.63930928 38.57129559 -6.94852245 38.54589844 -2.21557617 C38.55623611 -1.22115509 38.56657379 -0.22673401 38.57722473 0.79782104 C38.60680877 4.10105403 38.60815754 7.4036756 38.609375 10.70703125 C38.62438016 13.02602784 38.64111215 15.34501385 38.65948486 17.66398621 C38.7033082 23.79894447 38.72316075 29.93376043 38.73822021 36.06884766 C38.75748473 42.19117201 38.79962432 48.31333068 38.83984375 54.43554688 C38.90617925 64.88242114 38.94099179 75.32907077 38.96154022 85.77612495 C38.97657749 91.4691093 39.01935691 97.16003272 39.11465073 102.8522501 C39.16407236 105.80894912 39.20060782 108.76573365 39.23581696 111.72263145 C39.26454363 113.62751277 39.3140863 115.53204534 39.36444092 117.43647766 C39.37598206 118.53598251 39.38752319 119.63548737 39.39941406 120.76831055 C39.42844818 122.15810371 39.42844818 122.15810371 39.45806885 123.57597351 C38.84564283 126.81683323 37.56445439 127.99256843 35 130 C31.76367188 130.50170898 31.76367188 130.50170898 27.96875 130.49609375 C27.29581909 130.49754898 26.62288818 130.49900421 25.92956543 130.50050354 C24.5107794 130.498848 23.09197477 130.48732503 21.67333984 130.46655273 C19.50670783 130.43758967 17.34252376 130.44594949 15.17578125 130.45898438 C13.79425899 130.45274642 12.41274443 130.44435502 11.03125 130.43359375 C9.15276367 130.41897095 9.15276367 130.41897095 7.23632812 130.40405273 C3.80081119 129.97513145 2.35860792 129.50268904 0 127 C-0.45781902 124.31471536 -0.69472304 122.00348286 -0.75 119.3125 C-0.77964844 118.61060547 -0.80929687 117.90871094 -0.83984375 117.18554688 C-0.91037033 115.45764576 -0.95747068 113.7288168 -1 112 C-1.49886719 112.3403125 -1.99773437 112.680625 -2.51171875 113.03125 C-4.99499024 114.70756971 -7.49485053 116.35653856 -10 118 C-11.00160156 118.66128906 -12.00320313 119.32257813 -13.03515625 120.00390625 C-31.16596037 131.61378932 -50.16342284 135.8492312 -71.375 131.875 C-87.29266131 127.92315568 -99.37354926 118.83206756 -108 105 C-120.03832649 84.71319054 -121.96063447 59.38386302 -116.97265625 36.6015625 C-115.41779031 30.84418741 -113.46204345 25.42998624 -111 20 C-110.51917969 18.93136719 -110.03835938 17.86273438 -109.54296875 16.76171875 C-101.53852654 0.49965247 -88.85022051 -10.42501024 -72.0234375 -17 C-45.57233723 -25.74868433 -20.75860842 -16.76656834 0 0 Z M-69 25 C-77.48486512 35.83378258 -80.6838259 47.13311446 -79.8203125 60.85546875 C-78.32230431 71.44852665 -73.18535716 82.12348974 -64.7109375 88.8046875 C-54.24731577 96.42321571 -44.98041389 99.01498831 -32 98 C-20.1507141 95.63284814 -11.67321409 90.87865983 -4.41015625 81.24609375 C-1.23284586 76.18528081 -0.66037831 71.66554453 -0.59375 65.76953125 C-0.57664978 64.58383797 -0.57664978 64.58383797 -0.5592041 63.37419128 C-0.54036269 61.70418601 -0.52725944 60.03410735 -0.51953125 58.36401367 C-0.5001877 55.83702065 -0.43813714 53.3133348 -0.375 50.78710938 C-0.25147876 41.41219498 -0.62363861 34.44601481 -7 27 C-7.70382812 26.15824219 -8.40765625 25.31648438 -9.1328125 24.44921875 C-19.95520047 14.87883252 -31.96315713 12.17569382 -46.01708984 12.82958984 C-55.17224685 13.61637876 -62.69219147 18.57398722 -69 25 Z " fill="#A405BC" transform="translate(1237,276)"/>
<path d="M0 0 C1.59775302 1.35821748 3.18191986 2.73263003 4.75 4.125 C5.78060547 4.99705078 5.78060547 4.99705078 6.83203125 5.88671875 C22.35987531 20.00572488 27.42121966 40.42677681 28.93359375 60.5703125 C29.62514548 81.96773662 22.41178883 102.17659148 8.45703125 118.328125 C-4.38462468 131.59598308 -22.40447598 138.70487548 -40.74609375 139.328125 C-64.1183871 139.69862682 -84.59741131 134.6168649 -102.19140625 118.27734375 C-117.65461639 102.1099267 -121.86284693 82.10603971 -121.65454102 60.52246094 C-121.09989187 38.63873866 -113.17205076 19.43564401 -97.25 4.125 C-70.53439643 -18.41252422 -28.29534312 -21.89776174 0 0 Z M-72.4375 31.3125 C-81.63067034 42.63487872 -83.57804786 57.06097311 -82.25 71.125 C-80.07295218 82.05971748 -74.10126387 92.22674779 -65.25 99.125 C-55.98499685 104.29141701 -46.41804008 105.72093016 -36.0625 103 C-28.32417293 100.37559114 -21.70429509 94.97001844 -17.25 88.125 C-10.82041947 75.057312 -8.42397711 59.74667253 -12.875 45.5625 C-16.96335496 35.32731765 -22.54596565 25.97137104 -32.9375 21.25 C-48.01106513 16.13067599 -61.60936821 19.82310826 -72.4375 31.3125 Z " fill="#A405BC" transform="translate(1689.25,269.875)"/>
<path d="M0 0 C14.07384159 10.76525427 23.70861845 27.3403689 27.2265625 44.703125 C27.55681422 47.52379953 27.45562491 49.81693858 27.2265625 52.703125 C24.47535453 55.33457685 21.47347331 56.52865343 17.92578125 57.8046875 C16.82621094 58.20405518 15.72664063 58.60342285 14.59375 59.01489258 C13.37945313 59.44825928 12.16515625 59.88162598 10.9140625 60.328125 C9.62085071 60.79579658 8.32788978 61.26416232 7.03515625 61.7331543 C2.43562101 63.39910273 -2.1689223 65.0510012 -6.7734375 66.703125 C-13.90030029 69.2621452 -21.02576735 71.82500085 -28.14974976 74.39202881 C-31.21476431 75.49452015 -34.28171801 76.59147935 -37.34887695 77.68798828 C-47.64194213 81.3823915 -57.80137318 85.20476366 -67.7734375 89.703125 C-62.53154369 99.97723686 -55.49795944 105.42127013 -44.7734375 109.703125 C-27.34018502 114.96191604 -11.09142757 111.5939211 4.7890625 103.390625 C5.69785156 102.87886719 6.60664062 102.36710937 7.54296875 101.83984375 C10.70533579 100.50032583 12.82614146 100.25099145 16.2265625 100.703125 C17.73046875 102.06640625 17.73046875 102.06640625 18.7890625 104.015625 C19.18609375 104.74265625 19.583125 105.4696875 19.9921875 106.21875 C20.39953125 107.03859375 20.806875 107.8584375 21.2265625 108.703125 C21.69578125 109.60546875 22.165 110.5078125 22.6484375 111.4375 C27.67896615 121.66812568 27.67896615 121.66812568 26.2265625 126.703125 C11.64540437 141.12816794 -15.26107227 144.80488404 -34.8359375 144.953125 C-56.18574716 144.76523638 -75.82773297 138.92977308 -91.53125 124.00390625 C-108.00745444 107.09713898 -112.42959115 87.27565895 -112.24194336 64.35644531 C-111.7627979 45.09554849 -105.85479165 27.20768203 -92.7734375 12.703125 C-92.2784375 12.11660156 -91.7834375 11.53007812 -91.2734375 10.92578125 C-69.68849871 -12.87161377 -26.50050787 -17.5488313 0 0 Z M-65.46484375 35.6640625 C-71.57039937 43.89661619 -74.58986203 54.49781842 -73.7734375 64.703125 C-66.48158078 63.24789649 -59.60806311 61.08071356 -52.58984375 58.640625 C-51.45312729 58.24866943 -50.31641083 57.85671387 -49.14524841 57.45288086 C-46.75849171 56.62828973 -44.37260387 55.80117985 -41.98754883 54.97167969 C-38.32581651 53.69960901 -34.66020833 52.43920144 -30.99414062 51.1796875 C-28.67163361 50.37569698 -26.34935948 49.5710333 -24.02734375 48.765625 C-22.92846329 48.38849365 -21.82958282 48.0113623 -20.69740295 47.62280273 C-19.68552414 47.26903564 -18.67364532 46.91526855 -17.63110352 46.55078125 C-16.73891617 46.24148682 -15.84672882 45.93219238 -14.92750549 45.61352539 C-12.614823 44.79520831 -12.614823 44.79520831 -10.7734375 42.703125 C-15.9588474 34.56653327 -22.09411633 25.60974331 -31.7734375 22.703125 C-46.20888835 21.29877118 -55.92008901 24.59831913 -65.46484375 35.6640625 Z " fill="#A405BC" transform="translate(1949.7734375,265.296875)"/>
<path d="M0 0 C2.10671795 4.21343591 0.39683966 9.62283955 -0.85546875 13.96875 C-3.49882679 21.66588453 -3.49882679 21.66588453 -7 24 C-10.88799353 23.74916171 -13.9738186 23.42548985 -17.5625 21.9375 C-22.27325728 20.12567028 -26.06048649 20.67117027 -30.75 22.3125 C-34.9112315 24.47313943 -36.52104639 25.56313918 -38 30 C-38.39764225 35.2687598 -37.92427667 38.56641924 -35 43 C-30.75399715 47.43900298 -26.11568211 50.08378686 -20.6875 52.875 C-8.34088049 59.26469068 0.26427401 66.54808867 5 80 C8.26565478 94.6954465 6.69254638 111.27606216 -0.42578125 124.55078125 C-6.91391824 134.64522763 -15.03787004 141.6493955 -26.75 144.49609375 C-42.46912766 146.93331427 -57.81275944 144.55342884 -71.140625 135.5546875 C-74.03673508 133.30608171 -75.66221324 132.00261251 -76.859375 128.44921875 C-77.06006608 123.52671264 -75.67413183 119.40788936 -74.1875 114.75 C-73.91357422 113.83992188 -73.63964844 112.92984375 -73.35742188 111.9921875 C-71.28148496 105.28148496 -71.28148496 105.28148496 -69 103 C-63.75893751 102.08851087 -60.84169358 103.43968954 -56.1875 105.9375 C-49.52562475 109.45996654 -43.50725873 111.05667785 -36.0625 109.25 C-33.23898521 108.09754499 -31.75807568 107.44177177 -30 105 C-28.2966198 99.88985941 -28.19312277 94.36683987 -29.9375 89.25 C-35.75292688 82.90589795 -44.1994358 79.12623557 -51.66796875 75.02734375 C-62.71348143 68.30680321 -69.63389077 58.39428659 -73 46 C-75.53689427 33.94975219 -74.37083425 20.40807384 -68.3125 9.5625 C-62.34541452 0.64112219 -54.10287779 -4.78756206 -43.75390625 -7.61328125 C-29.11749808 -9.66860665 -12.20031475 -9.14123878 0 0 Z " fill="#A405BB" transform="translate(1099,265)"/>
<path d="M0 0 C2.33070648 1.5095367 4.00115409 3.01319533 6 5 C7.20214549 11.85222928 4.97870064 18.79437367 2 25 C0.17578125 26.90234375 0.17578125 26.90234375 -2 28 C-4.47265625 27.890625 -4.47265625 27.890625 -7.0625 27.25 C-7.91972656 27.04890625 -8.77695312 26.8478125 -9.66015625 26.640625 C-11.45612418 26.14890757 -13.23348983 25.58883672 -15 25 C-20.88724364 24.42281925 -25.17943541 25.68655445 -30 29 C-32.99398576 33.49097864 -32.56773139 37.73902245 -32 43 C-28.69675908 51.1794537 -18.8887844 55.04351569 -11.4375 58.875 C-1.05633122 64.51049162 6.08598746 71.73528098 10 83 C14.04532473 99.143668 12.32402853 116.50665082 3.75 130.875 C-2.58934975 140.16099847 -11.12095337 146.55073418 -22.265625 148.68359375 C-39.21497647 150.64487585 -54.09861859 147.84899461 -68.125 137.75 C-70.67514288 135.36986665 -70.96952717 134.44467762 -71.2109375 130.921875 C-70.96754897 126.39665123 -69.96217651 122.5545064 -68.625 118.25 C-68.29242187 117.11884766 -68.29242187 117.11884766 -67.953125 115.96484375 C-66.9394372 112.60774826 -65.95703854 109.9355578 -64 107 C-58.66141621 106.38599823 -55.31876202 107.47472363 -50.625 109.9375 C-43.40770691 113.42227996 -38.00006792 114.9869539 -30.125 113.0625 C-27.63815577 112.10602145 -26.32880033 111.4424597 -24.734375 109.296875 C-22.27119746 103.60917413 -22.6870765 98.35646969 -24.93359375 92.61328125 C-28.13318048 88.56692298 -32.42367857 86.74661581 -36.9375 84.375 C-51.17645518 76.51292589 -61.06512002 68.55745237 -67 53 C-70.26883946 41.56873302 -69.22848544 26.41050401 -63.93359375 15.87890625 C-58.26461164 5.98157444 -50.43769395 0.56938518 -39.77734375 -3.11328125 C-27.12851703 -6.08255081 -12.03703181 -4.85095162 0 0 Z " fill="#A405BC" transform="translate(999,261)"/>
<path d="M0 0 C3.37668814 6.19473302 0.21756511 15.24906603 -1.1875 21.69921875 C-1.39246094 22.72660156 -1.59742188 23.75398438 -1.80859375 24.8125 C-2.02128906 25.80121094 -2.23398438 26.78992188 -2.453125 27.80859375 C-2.73591309 29.14615723 -2.73591309 29.14615723 -3.02441406 30.51074219 C-4.13534386 33.47757824 -5.49109428 34.96090608 -7.9375 36.94921875 C-10.8203125 37.234375 -10.8203125 37.234375 -14.0625 37.01171875 C-24.06761369 36.73193369 -32.33698977 39.25454214 -39.9375 45.94921875 C-50.66176517 58.05447582 -54.21222412 72.76257677 -54.27302551 88.49477196 C-54.28140326 90.59307291 -54.30198381 92.69095678 -54.32556152 94.78913879 C-54.3816084 99.99408071 -54.41717856 105.19912367 -54.45318604 110.40423584 C-54.48449128 114.81851318 -54.52370585 119.23258293 -54.57344055 123.64669228 C-54.59341735 125.70786511 -54.60180635 127.76887478 -54.60974121 129.8301239 C-54.62986267 131.71281731 -54.62986267 131.71281731 -54.65039062 133.63354492 C-54.65768188 134.73526535 -54.66497314 135.83698578 -54.67248535 136.97209167 C-54.94491446 140.03251146 -55.54337067 142.21931783 -56.9375 144.94921875 C-61.43642007 147.19867878 -67.58952437 146.17643802 -72.59545898 146.18945312 C-74.86283949 146.19916665 -77.12931639 146.23019268 -79.39648438 146.26171875 C-80.83593211 146.26824817 -82.27538634 146.27349889 -83.71484375 146.27734375 C-85.02702881 146.28668945 -86.33921387 146.29603516 -87.69116211 146.30566406 C-90.9375 145.94921875 -90.9375 145.94921875 -92.61616611 144.77761745 C-94.45471544 142.23352073 -94.31771342 140.46367844 -94.32518005 137.33839417 C-94.33508469 136.1704834 -94.34498932 135.00257263 -94.35519409 133.79927063 C-94.35069244 132.51658798 -94.3461908 131.23390533 -94.34155273 129.91235352 C-94.34725448 128.54895466 -94.35421798 127.18556059 -94.36235046 125.82217407 C-94.38031939 122.11758722 -94.37910651 118.41323673 -94.37340808 114.70861936 C-94.37032143 111.6170801 -94.37640286 108.52558659 -94.38244683 105.43405384 C-94.39650285 98.14113729 -94.39492201 90.84833786 -94.38354492 83.55541992 C-94.37206366 76.02937719 -94.38613681 68.50369081 -94.4129414 60.97769505 C-94.43508711 54.51815197 -94.44173832 48.05872084 -94.43586498 41.59914249 C-94.43249132 37.74023372 -94.43493725 33.88155336 -94.45211601 30.02267647 C-94.46756522 26.39379116 -94.46365285 22.76543425 -94.44481087 19.13656998 C-94.43935808 17.16927016 -94.45365465 15.20194675 -94.46850586 13.23469543 C-94.45867172 12.06396484 -94.44883759 10.89323425 -94.43870544 9.68702698 C-94.43849616 8.66957681 -94.43828688 7.65212664 -94.43807125 6.60384464 C-93.80045777 3.22245735 -92.62606074 2.03514924 -89.9375 -0.05078125 C-86.96069336 -0.53662109 -86.96069336 -0.53662109 -83.52734375 -0.51171875 C-81.67206055 -0.50591797 -81.67206055 -0.50591797 -79.77929688 -0.5 C-78.49087891 -0.47550781 -77.20246094 -0.45101563 -75.875 -0.42578125 C-73.93657227 -0.42384766 -73.93657227 -0.42384766 -71.95898438 -0.421875 C-62.35892857 -0.33173363 -62.35892857 -0.33173363 -58.9375 1.94921875 C-58.2421875 4.6015625 -58.2421875 4.6015625 -57.8125 7.88671875 C-57.65652344 9.04558594 -57.50054688 10.20445312 -57.33984375 11.3984375 C-56.86814241 15.5613163 -56.4795055 19.72334515 -56.18359375 23.90234375 C-56.15232812 25.94027198 -56.15232812 25.94027198 -54.9375 26.94921875 C-54.54820313 26.19898438 -54.15890625 25.44875 -53.7578125 24.67578125 C-47.10111168 12.49739311 -38.92534596 3.2860186 -25.390625 -0.82421875 C-18.12165674 -2.48016714 -6.78866459 -3.6817556 0 0 Z " fill="#A305BB" transform="translate(1831.9375,260.05078125)"/>
<path d="M0 0 C0.69891357 -0.0004985 1.39782715 -0.00099701 2.11791992 -0.00151062 C3.59394172 0.00082733 5.06996769 0.0105396 6.54589844 0.02709961 C8.80439933 0.05069661 11.06171962 0.04765855 13.3203125 0.04101562 C24.39365848 0.08405357 24.39365848 0.08405357 27.8125 2.36328125 C29.01594439 5.5105838 28.94530882 8.63976551 28.95967102 11.98046875 C28.96682632 13.12451172 28.97398163 14.26855469 28.98135376 15.44726562 C28.98404266 16.69830078 28.98673157 17.94933594 28.98950195 19.23828125 C28.99576996 20.57226741 29.00241706 21.90625184 29.00941467 23.24023438 C29.030407 27.61457107 29.04080846 31.98890795 29.05078125 36.36328125 C29.05482978 37.87011737 29.05894673 39.37695331 29.06313133 40.88378906 C29.0821677 47.95949974 29.09640533 55.03520005 29.1047433 62.1109314 C29.11452823 70.2792864 29.14088669 78.44737132 29.18124419 86.6156311 C29.21137657 92.93079867 29.22620919 99.24588863 29.22952431 105.56112671 C29.23187694 109.33286538 29.24086541 113.10431498 29.26598549 116.87597656 C29.28922306 120.42193496 29.29351731 123.967413 29.28322411 127.51342773 C29.28249087 129.43542586 29.30160966 131.35739936 29.32128906 133.27929688 C29.31434525 134.42333984 29.30740143 135.56738281 29.30024719 136.74609375 C29.30263555 137.74012207 29.3050239 138.73415039 29.30748463 139.75830078 C28.6696775 143.11492038 27.48919237 144.29875624 24.8125 146.36328125 C21.46850586 146.86499023 21.46850586 146.86499023 17.52734375 146.859375 C16.82984512 146.86083023 16.1323465 146.86228546 15.41371155 146.86378479 C13.94365244 146.86212914 12.4735754 146.85060502 11.00366211 146.82983398 C8.75364685 146.80082826 6.50598197 146.80923925 4.25585938 146.82226562 C2.82550939 146.81602917 1.39516683 146.80763895 -0.03515625 146.796875 C-1.33461182 146.78712646 -2.63406738 146.77737793 -3.97290039 146.76733398 C-7.1875 146.36328125 -7.1875 146.36328125 -9.07202148 145.02368164 C-11.31697604 141.68204541 -11.30705873 138.71798005 -11.28997803 134.82165527 C-11.28727402 133.66912766 -11.28457001 132.51660004 -11.28178406 131.32914734 C-11.27355118 130.06359512 -11.2653183 128.79804291 -11.25683594 127.49414062 C-11.25160301 126.14883062 -11.24677592 124.80351899 -11.24232483 123.45820618 C-11.22867533 119.80330233 -11.2082297 116.14846772 -11.18575954 112.49360847 C-11.17190064 110.21125328 -11.15926311 107.9288945 -11.1470108 105.64653015 C-11.10840622 98.5083102 -11.06578442 91.37013162 -11.01723552 84.23197222 C-10.96116654 75.98619822 -10.91816507 67.7404936 -10.88655448 59.49459028 C-10.86136481 53.12333002 -10.82477913 46.7521993 -10.77946877 40.38105059 C-10.75264005 36.57422829 -10.73065597 32.76752333 -10.72045135 28.96061707 C-10.71053049 25.38180772 -10.68649765 21.80337136 -10.65151787 18.22472191 C-10.63613745 16.28233972 -10.63553887 14.33985823 -10.6353302 12.39741516 C-10.61435524 10.66862373 -10.61435524 10.66862373 -10.59295654 8.90490723 C-10.58704876 7.90128395 -10.58114098 6.89766068 -10.57505417 5.86362457 C-10.1875 3.36328125 -10.1875 3.36328125 -8.86406326 1.54019928 C-6.07962509 -0.41442752 -3.33923455 -0.00762288 0 0 Z " fill="#A405BB" transform="translate(878.1875,259.63671875)"/>
<path d="M0 0 C5.87404772 5.26870692 8.92165245 10.37204889 9.375 18.3125 C9.1891116 24.45714421 7.27660473 29.45698408 3.1640625 34.05078125 C-2.61970301 39.40242635 -7.82569418 41.48911107 -15.70703125 41.23828125 C-22.78816618 40.50242225 -27.47431831 37.48798662 -32.296875 32.3046875 C-36.07541014 27.19153214 -37.34449495 21.6102113 -36.9375 15.3125 C-35.76011482 8.272976 -32.31033498 3.60927721 -26.77734375 -0.77734375 C-18.72170791 -6.31891302 -7.90035675 -5.23764392 0 0 Z " fill="#A405BC" transform="translate(902,188)"/>
</svg>
